<svg id="visual" viewBox="0 0 960 540" width="960" height="540" xmlns="http://www.w3.org/2000/svg" xmlns:xlink="http://www.w3.org/1999/xlink" version="1.1"><rect x="0" y="0" width="960" height="540" fill="#242424"></rect><path d="M0 314L137 315L274 372L411 374L549 395L686 360L823 346L960 375L960 541L823 541L686 541L549 541L411 541L274 541L137 541L0 541Z" fill="#1c1c1c"></path><path d="M0 385L137 374L274 366L411 401L549 384L686 364L823 358L960 417L960 541L823 541L686 541L549 541L411 541L274 541L137 541L0 541Z" fill="#191919"></path><path d="M0 433L137 445L274 444L411 456L549 425L686 440L823 406L960 404L960 541L823 541L686 541L549 541L411 541L274 541L137 541L0 541Z" fill="#151515"></path><path d="M0 466L137 437L274 464L411 473L549 470L686 443L823 444L960 485L960 541L823 541L686 541L549 541L411 541L274 541L137 541L0 541Z" fill="#111111"></path><path d="M0 495L137 504L274 500L411 501L549 485L686 492L823 479L960 482L960 541L823 541L686 541L549 541L411 541L274 541L137 541L0 541Z" fill="#0c0c0c"></path></svg>